<svg width="64" height="64" viewBox="0 0 64 64" fill="none" xmlns="http://www.w3.org/2000/svg">
<path d="M42.6342 11.1197C46.2311 12.0804 48.9861 13.8928 50.8991 16.5571C52.171 18.3897 52.8663 20.3188 52.9848 22.3441C53.1033 24.3695 52.5282 26.2349 51.2594 27.9403C49.9906 29.6457 48.5862 30.6457 47.046 30.9403C45.5282 31.2476 44.3044 31.4589 43.3749 31.5741C42.4453 31.6893 41.5363 31.8454 40.6479 32.0425C38.8933 32.4492 38.2508 33.3411 38.7203 34.7181C40.2238 38.9911 40.6836 42.1309 40.0999 44.1375C39.5384 46.1567 38.3191 47.5249 36.4418 48.2418C33.845 49.2225 31.1993 50.0585 28.5049 50.7499C25.8456 51.4321 23.1845 52.1425 20.5218 52.8811C19.2337 53.202 18.7579 52.8734 19.0944 51.8954C19.5124 50.5253 18.815 48.7266 17.0021 46.4991C15.2244 44.2624 13.2872 41.9936 11.1906 39.6927C10.8254 39.2516 10.985 38.9039 11.6694 38.6494C12.6316 38.3774 13.6161 38.118 14.6228 37.8713C15.6296 37.6245 16.63 37.3887 17.6239 37.1639C19.1675 36.8128 19.978 36.1916 20.0555 35.3004C20.1681 34.3999 20.0536 33.2535 19.7119 31.8613C18.8401 28.3854 19.0103 25.691 20.2226 23.7782C21.4571 21.878 23.1918 20.5687 25.4267 19.8502C27.508 19.1906 29.6746 18.7402 31.9265 18.4989C34.2135 18.2483 36.4886 17.8156 38.7517 17.2008C39.0201 17.1486 39.222 17.3363 39.3573 17.7638C40.8128 22.068 42.526 24.7941 44.497 25.9423C46.4903 27.1032 48.1354 27.2627 49.4322 26.4207C50.7418 25.5569 51.4197 24.2758 51.4657 22.5777C51.5246 20.8576 51.0025 19.1145 49.8995 17.3485C48.1647 14.7855 45.5653 13.1637 42.1013 12.483C41.393 12.3731 41.1183 12.0564 41.2771 11.5328C41.4359 11.0093 41.8883 10.8715 42.6342 11.1197ZM19.9492 37.6073C19.5076 37.8534 19.4071 38.1763 19.6479 38.5761C20.8059 40.1979 21.9703 41.8088 23.1411 43.4087C24.3119 45.0086 25.5067 46.5929 26.7256 48.1616C27.557 49.2766 29.0383 49.2846 31.1695 48.1858C33.8256 46.8004 33.6708 42.9132 30.7051 36.5243C30.1952 35.621 29.108 35.2961 27.4435 35.5494L19.9492 37.6073ZM28.5787 33.3882C28.7304 33.7373 28.982 33.8656 29.3336 33.7729L39.0661 31.3198C39.3954 31.2145 39.5669 31.0488 39.5807 30.8229C39.6297 30.5876 39.5269 30.3831 39.2722 30.2093C38.0789 29.3565 36.9577 28.077 35.9087 26.3709C34.2452 23.5853 33.1761 21.7363 32.7013 20.8238C32.2266 19.9113 30.9995 19.7992 29.0202 20.4875C26.5101 21.3712 25.5273 23.0197 26.0718 25.4331C26.6387 27.8592 27.4743 30.5109 28.5787 33.3882Z" fill="#FF5370"/>
</svg>
